# xmcd
#
# Track frame offsets: 
#        150
#        9138
#        21674
#        37407
#        49109
#        61870
#        78237
#        91969
#        103968
#        118203
#        128869
#        143455
#        157815
#        172359
#        191506
#        207132
#        221281
#        237362
#        252690
#        270325
#        279407
#
# Disc length: 3861 seconds
#
# Revision: 0
# Processed by: cddbd v1.5.2PL0 Copyright (c) Steve Scherf et al.
# Submitted via: ExactAudioCopy v0.99pb4
#
DISCID=2d0f1315
DTITLE=Regional Garland - Mixed Sugar - The Complete Works 1970-1987
DYEAR=1970
DGENRE=Soul
TTITLE0=I Need Love (21St Generations)
TTITLE1=Hey James
TTITLE2=Girl You Better Hurry
TTITLE3=Get On Down
TTITLE4=I Need Love (Hunts Determination Band Instrumental)
TTITLE5=Are We Through (Instrumental)
TTITLE6=It's A Bad Feeling
TTITLE7=Fifteen Ain't Young No More
TTITLE8=Gangster Girl
TTITLE9=I'm Gonna Get You 
TTITLE10=The Disco Jam Bam Bam
TTITLE11=I'm Sad Weüfve Broke Up
TTITLE12=What Love Has Joined Together
TTITLE13=Why Now (Vocal)
TTITLE14=If This Ain't Love
TTITLE15=I'm Falling In Love
TTITLE16=Hit Girl
TTITLE17=How Could You (Expect Me To Take You Back)
TTITLE18=Chillin' Out
TTITLE19=I Need Love (Hunts Determination Band - Vocal)
TTITLE20=I Need Love (Hunts Determination Band - 45 Issue)
EXTD=
EXTT0=
EXTT1=
EXTT2=
EXTT3=
EXTT4=
EXTT5=
EXTT6=
EXTT7=
EXTT8=
EXTT9=
EXTT10=
EXTT11=
EXTT12=
EXTT13=
EXTT14=
EXTT15=
EXTT16=
EXTT17=
EXTT18=
EXTT19=
EXTT20=
PLAYORDER=
